<svg width="56" height="56" viewBox="0 0 56 56" fill="none" xmlns="http://www.w3.org/2000/svg">
<g clip-path="url(#clip0_1910_1310)">
<path d="M33.4 33.4C29 37.94 28.68 43.6 28.3 56C39.86 56 47.84 55.96 51.96 51.96C55.96 47.84 56 39.48 56 28.3C43.6 28.7 37.94 29 33.4 33.4ZM0 28.3C0 39.48 0.04 47.84 4.04 51.96C8.16 55.96 16.14 56 27.7 56C27.3 43.6 27 37.94 22.6 33.4C18.06 29 12.4 28.68 0 28.3ZM27.7 0C16.16 0 8.16 0.04 4.04 4.04C0.04 8.16 0 16.52 0 27.7C12.4 27.3 18.06 27 22.6 22.6C27 18.06 27.32 12.4 27.7 0ZM33.4 22.6C29 18.06 28.68 12.4 28.3 0C39.86 0 47.84 0.04 51.96 4.04C55.96 8.16 56 16.52 56 27.7C43.6 27.3 37.94 27 33.4 22.6Z" fill="#2C3036"/>
<path d="M56 28.3V27.7C43.6 27.3 37.94 27 33.4 22.6C29 18.06 28.68 12.4 28.3 0H27.7C27.3 12.4 27 18.06 22.6 22.6C18.06 27 12.4 27.32 0 27.7V28.3C12.4 28.7 18.06 29 22.6 33.4C27 37.94 27.32 43.6 27.7 56H28.3C28.7 43.6 29 37.94 33.4 33.4C37.94 29 43.6 28.68 56 28.3Z" fill="white"/>
</g>
<defs>
<clipPath id="clip0_1910_1310">
<rect width="56" height="56" fill="white"/>
</clipPath>
</defs>
</svg>
