<svg width="56" height="56" viewBox="0 0 56 56" fill="none" xmlns="http://www.w3.org/2000/svg">
<path d="M27.7876 53.2424C41.8457 53.2424 53.2421 41.846 53.2421 27.7879C53.2421 13.7297 41.8457 2.33331 27.7876 2.33331C13.7294 2.33331 2.33301 13.7297 2.33301 27.7879C2.33301 41.846 13.7294 53.2424 27.7876 53.2424Z" fill="#E27E35"/>
<path d="M31.0619 34.8142C32.6924 34.4428 34.2625 33.7972 35.7074 32.8892C36.8012 32.1991 37.1321 30.7542 36.4419 29.6564C35.7518 28.5587 34.3069 28.2277 33.2091 28.9178C29.932 30.9801 25.7144 30.9761 22.437 28.9178C21.3392 28.2277 19.8943 28.5587 19.2043 29.6564C18.5142 30.7503 18.8451 32.1991 19.9388 32.8892C21.3836 33.7972 22.9537 34.443 24.5842 34.8142L20.1165 39.2861C19.2003 40.2023 19.2003 41.6835 20.1165 42.5996C20.5765 43.0557 21.174 43.2857 21.7712 43.2857C22.3727 43.2857 22.9699 43.0557 23.4302 42.5996L27.8253 38.2043L32.2206 42.5996C33.1367 43.5157 34.6179 43.5157 35.5341 42.5996C36.4502 41.6835 36.4502 40.1981 35.5341 39.2861L31.0619 34.8142ZM27.825 16.9791C29.6534 16.9791 31.1385 18.4643 31.1385 20.2926C31.1385 22.1168 29.6534 23.6022 27.825 23.6022C26.0009 23.6022 24.5115 22.117 24.5115 20.2926C24.5115 18.4643 26.0009 16.9791 27.825 16.9791ZM27.825 28.2879C32.2365 28.2879 35.8245 24.7 35.8245 20.2926C35.8245 15.8772 32.2365 12.2893 27.825 12.2893C23.4138 12.2893 19.8258 15.8772 19.8258 20.2887C19.8258 24.7002 23.4138 28.2879 27.825 28.2879Z" fill="white"/>
</svg>
