<svg width="40" height="40" viewBox="0 0 40 40" fill="none" xmlns="http://www.w3.org/2000/svg">
<path d="M35.0893 14.6459L20.7064 10.1824C19.9226 9.93919 19.077 9.93919 18.2938 10.1824L3.91034 14.6459C2.69655 15.0225 2.69655 16.6438 3.91034 17.0204L6.41783 17.7985C5.86766 18.4855 5.52941 19.3235 5.49589 20.2412C4.99934 20.5287 4.64975 21.0475 4.64975 21.6667C4.64975 22.2282 4.94262 22.7006 5.36441 23.0026L4.04801 28.9859C3.93354 29.5063 4.32542 30 4.85291 30H7.74609C8.27409 30 8.66597 29.5063 8.5515 28.9859L7.2351 23.0026C7.65689 22.7006 7.94976 22.2282 7.94976 21.6667C7.94976 21.0641 7.61615 20.56 7.14229 20.2673C7.18148 19.485 7.57748 18.7933 8.20912 18.3548L18.2932 21.4844C18.7604 21.6292 19.6566 21.8099 20.7059 21.4844L35.0893 17.0209C36.3036 16.6438 36.3036 15.023 35.0893 14.6459V14.6459ZM21.1905 23.0776C19.7195 23.5339 18.466 23.2818 17.8086 23.0776L10.3309 20.7574L9.59977 26.6667C9.59977 28.5078 14.0321 30 19.4998 30C24.9675 30 29.3998 28.5078 29.3998 26.6667L28.6687 20.7568L21.1905 23.0776V23.0776Z" fill="#3498DB"/>
</svg>
