<svg width="57" height="56" viewBox="0 0 57 56" fill="none" xmlns="http://www.w3.org/2000/svg">
<path d="M28.5 0C13.036 0 0.5 12.536 0.5 28C0.5 43.464 13.036 56 28.5 56C43.964 56 56.5 43.464 56.5 28C56.5 12.536 43.964 0 28.5 0ZM43.0533 17.7118L38.0803 41.4531C38.0201 41.7403 37.8887 42.0077 37.6982 42.2308C37.5077 42.454 37.2642 42.6257 36.9901 42.7301C36.7159 42.8346 36.4199 42.8685 36.1292 42.8287C35.8385 42.7889 35.5625 42.6767 35.3265 42.5024L28.0929 37.1582L23.7105 41.2926C23.6531 41.3467 23.5855 41.3888 23.5117 41.4166C23.4379 41.4443 23.3593 41.457 23.2804 41.454C23.2016 41.451 23.1242 41.4324 23.0527 41.3991C22.9812 41.3659 22.917 41.3187 22.8639 41.2604L22.7697 41.1569L23.5312 33.7878L37.256 21.2478C37.3239 21.1859 37.3661 21.1008 37.3743 21.0093C37.3825 20.9178 37.3561 20.8266 37.3004 20.7536C37.2446 20.6806 37.1635 20.6311 37.0731 20.6149C36.9826 20.5988 36.8894 20.6171 36.8118 20.6663L19.2595 31.7755L11.7 29.2367C11.499 29.1692 11.3238 29.0411 11.1985 28.8701C11.0731 28.699 11.0038 28.4934 11 28.2814C10.9961 28.0694 11.058 27.8614 11.1771 27.6859C11.2961 27.5105 11.4666 27.3762 11.665 27.3014L41.2422 16.1595C41.4703 16.0736 41.7174 16.0507 41.9575 16.0929C42.1975 16.1352 42.4218 16.2412 42.6069 16.3999C42.792 16.5585 42.9311 16.7639 43.0096 16.9947C43.0882 17.2255 43.1033 17.4731 43.0533 17.7118Z" fill="url(#paint0_linear_1910_1293)"/>
<defs>
<linearGradient id="paint0_linear_1910_1293" x1="0.5" y1="56" x2="55.4825" y2="1.01752" gradientUnits="userSpaceOnUse">
<stop stop-color="#2081C7"/>
<stop offset="1" stop-color="#38AFE2"/>
</linearGradient>
</defs>
</svg>
