<svg width="52" height="52" viewBox="0 0 52 52" fill="none" xmlns="http://www.w3.org/2000/svg">
<path fill-rule="evenodd" clip-rule="evenodd" d="M51.4368 33.8253V18.2379C51.4368 4.00038 48.0751 0.613024 33.8333 0.613024C-0.994086 0.389558 0.378323 -1.0268 0.611971 33.799C0.611971 48.0365 3.9736 51.4239 18.2154 51.4239H30.0366C45.1679 51.6849 51.8173 50.6447 51.4368 33.8253ZM41.6429 36.8691H37.9366C36.5337 36.8691 36.1103 35.7309 33.5954 33.2171C31.3983 31.0998 30.4717 30.835 29.916 30.835C29.1481 30.835 28.9364 31.0467 28.9364 32.1051V35.4394C28.9364 36.3391 28.6454 36.8686 26.2891 36.8686C22.3712 36.8686 18.0568 34.4866 14.9856 30.0939C10.3796 23.6632 9.13529 18.7936 9.13529 17.8145C9.13529 17.2588 9.34696 16.7556 10.4059 16.7556H14.1121C15.0649 16.7556 15.4089 17.179 15.7798 18.158C17.299 23.1386 22.503 31.4261 22.5829 26.6529V21.2013C22.4243 18.7138 21.1006 18.5021 21.1006 17.6023C21.1006 17.2052 21.4715 16.7556 22.0534 16.7556H27.8769C28.6711 16.7556 28.9359 17.1527 28.9359 18.105V25.4622C29.0366 27.2263 30.1341 26.5324 31.2391 25.3829C33.9127 22.4189 35.792 17.814 35.792 17.814C36.0305 17.2583 36.4538 16.7556 37.4067 16.7556H41.1129C42.2248 16.7556 42.4628 17.3113 42.2248 18.1055C41.7747 20.2753 37.248 26.6267 37.248 26.6535C36.8509 27.2623 36.6923 27.58 37.248 28.2944C38.315 29.6239 46.0897 36.6451 41.6429 36.8691Z" fill="#345E90"/>
</svg>
