<svg width="58" height="40" viewBox="0 0 58 40" fill="none" xmlns="http://www.w3.org/2000/svg">
<g clip-path="url(#clip0_1910_1285)">
<path d="M56.7278 6.26311C56.0609 3.81682 54.1079 1.88801 51.6309 1.22939C47.1057 0.00624084 29.0047 0.00624084 29.0047 0.00624084C29.0047 0.00624084 10.9037 0.00624084 6.37844 1.18234C3.9491 1.84096 1.94846 3.81682 1.28158 6.26311C0.0907288 10.7323 0.0907288 20 0.0907288 20C0.0907288 20 0.0907288 29.3148 1.28158 33.7369C1.94846 36.1832 3.90146 38.112 6.37844 38.7706C10.9513 39.9938 29.0047 39.9938 29.0047 39.9938C29.0047 39.9938 47.1057 39.9938 51.6309 38.8177C54.1079 38.1591 56.0609 36.2302 56.7278 33.7839C57.9187 29.3148 57.9187 20.0471 57.9187 20.0471C57.9187 20.0471 57.9663 10.7323 56.7278 6.26311Z" fill="#FF0000"/>
<path d="M23.2409 11.438V28.562L38.2933 20L23.2409 11.438Z" fill="white"/>
</g>
<defs>
<clipPath id="clip0_1910_1285">
<rect width="58" height="40" fill="white"/>
</clipPath>
</defs>
</svg>
